<svg xmlns="http://www.w3.org/2000/svg" xmlns:xlink="http://www.w3.org/1999/xlink" width="500" zoomAndPan="magnify" viewBox="0 0 375 374.999991" height="500" preserveAspectRatio="xMidYMid meet" version="1.0"><defs><filter x="0%" y="0%" width="100%" height="100%" id="745c159ec7"><feColorMatrix values="0 0 0 0 1 0 0 0 0 1 0 0 0 0 1 0 0 0 1 0" color-interpolation-filters="sRGB"/></filter><clipPath id="e2857ec84c"><path d="M 34.941406 21.015625 L 210 21.015625 L 210 354 L 34.941406 354 Z M 34.941406 21.015625 " clip-rule="nonzero"/></clipPath><mask id="5d59cad29c"><g filter="url(#745c159ec7)"><rect x="-37.5" width="450" fill="#000000" y="-37.499999" height="449.999989" fill-opacity="0.3"/></g></mask><clipPath id="0c4b572b6e"><path d="M 0.941406 0.015625 L 175.761719 0.015625 L 175.761719 333 L 0.941406 333 Z M 0.941406 0.015625 " clip-rule="nonzero"/></clipPath><clipPath id="8d7a3f265c"><rect x="0" width="176" y="0" height="333"/></clipPath><mask id="b5c9f057e9"><g filter="url(#745c159ec7)"><rect x="-37.5" width="450" fill="#000000" y="-37.499999" height="449.999989" fill-opacity="0.2"/></g></mask><clipPath id="e96a10c58c"><rect x="0" width="157" y="0" height="303"/></clipPath><clipPath id="feb809c3ea"><path d="M 160 31 L 340.191406 31 L 340.191406 341 L 160 341 Z M 160 31 " clip-rule="nonzero"/></clipPath><clipPath id="48d6976abe"><path d="M 35 21.015625 L 206 21.015625 L 206 354 L 35 354 Z M 35 21.015625 " clip-rule="nonzero"/></clipPath></defs><g clip-path="url(#e2857ec84c)"><g mask="url(#5d59cad29c)"><g transform="matrix(1, 0, 0, 1, 34, 21)"><g clip-path="url(#8d7a3f265c)"><g clip-path="url(#0c4b572b6e)"><path fill="#fffefa" d="M 154.421875 224.308594 C 156.207031 227.070312 157.753906 230.171875 159.042969 233.613281 C 164.097656 247.085938 163.542969 260.855469 163.382812 263.476562 C 162.859375 271.875 160.859375 283.964844 154.253906 293.878906 C 153.578125 294.890625 152.871094 295.851562 152.132812 296.765625 C 152.242188 296.992188 152.34375 297.230469 152.453125 297.480469 C 152.496094 297.578125 152.539062 297.679688 152.578125 297.785156 C 153.304688 299.523438 154.195312 302.160156 154.589844 305.316406 C 155.296875 310.964844 154.714844 321.539062 142.898438 328.910156 C 138.121094 331.886719 133.617188 332.929688 129.644531 332.929688 C 121.320312 332.929688 115.359375 328.34375 114.222656 327.402344 C 112.984375 326.457031 106.199219 320.917969 103.265625 310.925781 C 101.429688 311.640625 99.515625 312.175781 97.53125 312.484375 C 95.714844 312.769531 93.929688 312.914062 92.179688 312.914062 C 84.636719 312.914062 77.726562 310.289062 71.960938 305.195312 C 65.792969 299.746094 61.203125 291.585938 58.863281 282.273438 C 58.054688 282.550781 57.183594 282.808594 56.246094 283.011719 C 54.804688 283.335938 53.128906 283.5625 51.285156 283.5625 C 47.019531 283.5625 41.835938 282.34375 36.464844 278.257812 C 26.667969 270.804688 24.933594 260.824219 24.90625 254.808594 C 23.566406 254.386719 22.246094 253.828125 20.964844 253.136719 C 11.199219 247.828125 5.730469 236.054688 5.953125 220.828125 C 6.128906 208.8125 11.089844 198.027344 19.0625 191.03125 C 15.847656 189.410156 12.882812 187.191406 10.292969 184.425781 C 4.414062 178.167969 1.09375 169.808594 0.945312 160.894531 C 0.691406 145.46875 8.535156 129.132812 26.652344 127.4375 C 27.011719 127.402344 27.363281 127.382812 27.714844 127.363281 C 27.648438 127.21875 27.582031 127.082031 27.515625 126.941406 C 25.4375 122.3125 24.339844 117.328125 24.253906 112.136719 C 24.097656 102.644531 27.371094 93.660156 33.476562 86.828125 C 39.578125 80 47.785156 76.144531 56.574219 75.972656 C 57.003906 75.964844 57.433594 75.96875 57.863281 75.972656 C 57.589844 74.234375 57.441406 72.464844 57.410156 70.671875 C 57.253906 61.1875 60.527344 52.199219 66.628906 45.367188 C 72.734375 38.539062 80.9375 34.683594 89.730469 34.511719 C 90.332031 34.5 90.941406 34.511719 91.546875 34.539062 C 91.582031 27.347656 93.894531 20.367188 98.3125 14.367188 C 104.5625 5.875 114.566406 0.273438 123.792969 0.0976562 C 134.0625 -0.109375 143.441406 3.628906 150.183594 10.609375 C 151.890625 12.378906 153.410156 14.328125 154.742188 16.441406 C 159.054688 23.277344 161.386719 31.847656 161.550781 41.628906 C 161.761719 54.441406 158.226562 66.601562 151.589844 75.875 C 148.257812 80.523438 144.347656 84.191406 140.050781 86.753906 C 150.503906 93.703125 157.4375 106.070312 157.671875 120.171875 C 157.84375 130.488281 155.058594 139.707031 149.613281 146.824219 C 148.902344 147.753906 148.175781 148.617188 147.433594 149.417969 C 153.601562 151.109375 159.28125 154.511719 163.988281 159.40625 C 171.125 166.839844 175.152344 176.824219 175.328125 187.527344 C 175.597656 203.296875 167.332031 217.558594 154.425781 224.308594 Z M 154.421875 224.308594 " fill-opacity="1" fill-rule="nonzero"/></g></g></g></g></g><g mask="url(#b5c9f057e9)"><g transform="matrix(1, 0, 0, 1, 173, 33)"><g clip-path="url(#e96a10c58c)"><path fill="#11ccf5" d="M 155.996094 91.902344 L 154.324219 184.914062 L 149.546875 186.324219 L 148.828125 236.960938 L 99.847656 295.769531 L 81.203125 295.769531 L 81.441406 301.703125 L 27.921875 300.667969 L 26.960938 286.457031 L 15.492188 285.785156 L 13.574219 285.785156 C 13.53125 285.679688 13.492188 285.578125 13.449219 285.480469 C 13.339844 285.230469 13.238281 284.996094 13.128906 284.765625 C 13.871094 283.851562 14.574219 282.890625 15.25 281.878906 C 21.855469 271.960938 23.859375 259.871094 24.378906 251.476562 C 24.542969 248.855469 25.09375 235.085938 20.042969 221.613281 C 18.75 218.171875 17.203125 215.070312 15.417969 212.308594 C 28.328125 205.5625 36.585938 191.296875 36.324219 175.527344 C 36.144531 164.824219 32.117188 154.839844 24.980469 147.40625 C 20.277344 142.511719 14.59375 139.109375 8.425781 137.417969 C 9.171875 136.617188 9.894531 135.753906 10.605469 134.824219 C 16.050781 127.707031 18.839844 118.488281 18.664062 108.171875 C 18.429688 94.074219 11.5 81.707031 1.042969 74.753906 C 5.339844 72.191406 9.257812 68.527344 12.582031 63.875 C 19.21875 54.601562 22.757812 42.4375 22.542969 29.628906 C 22.378906 19.847656 20.046875 11.277344 15.734375 4.445312 L 18.859375 1.21875 L 83.871094 1.21875 L 90.523438 8.246094 L 103.183594 11.019531 L 136.632812 48.136719 L 136.632812 89.109375 L 155.992188 91.902344 Z M 155.996094 91.902344 " fill-opacity="1" fill-rule="nonzero"/></g></g></g><path fill="#11ccf5" d="M 217.140625 199.886719 C 215.054688 199.886719 213.257812 201.191406 212.394531 203.078125 L 180.089844 203.078125 C 179.226562 201.191406 177.429688 199.886719 175.34375 199.886719 C 172.421875 199.886719 170.046875 202.445312 170.046875 205.605469 C 170.046875 208.761719 172.417969 211.324219 175.34375 211.324219 C 177.429688 211.324219 179.226562 210.019531 180.089844 208.128906 L 212.394531 208.128906 C 213.257812 210.019531 215.054688 211.324219 217.140625 211.324219 C 220.0625 211.324219 222.4375 208.761719 222.4375 205.605469 C 222.4375 202.445312 220.066406 199.886719 217.140625 199.886719 Z M 217.140625 199.886719 " fill-opacity="1" fill-rule="nonzero"/><path fill="#11ccf5" d="M 207.585938 293.007812 C 210.511719 293.007812 212.882812 290.449219 212.882812 287.292969 C 212.882812 284.132812 210.511719 281.574219 207.585938 281.574219 C 207.417969 281.574219 207.253906 281.582031 207.089844 281.601562 L 197.777344 268.691406 L 180.09375 268.691406 C 179.230469 266.804688 177.433594 265.5 175.347656 265.5 C 172.421875 265.5 170.050781 268.058594 170.050781 271.21875 C 170.050781 274.375 172.421875 276.9375 175.347656 276.9375 C 177.433594 276.9375 179.230469 275.632812 180.09375 273.742188 L 195.492188 273.742188 L 203.09375 284.277344 C 202.589844 285.15625 202.292969 286.183594 202.292969 287.292969 C 202.292969 290.449219 204.660156 293.007812 207.589844 293.007812 Z M 207.585938 293.007812 " fill-opacity="1" fill-rule="nonzero"/><path fill="#11ccf5" d="M 219.148438 268.65625 L 232.941406 268.65625 L 244 280.589844 L 263.472656 280.589844 L 275.191406 267.941406 L 275.191406 261.671875 L 288.214844 261.671875 L 288.214844 227.214844 L 267.460938 227.214844 L 257.484375 237.984375 L 257.484375 241.257812 L 244.367188 241.257812 L 233.308594 253.191406 L 211.691406 253.191406 C 210.828125 251.300781 209.027344 250 206.945312 250 C 204.019531 250 201.644531 252.558594 201.644531 255.71875 C 201.644531 258.875 204.015625 261.4375 206.945312 261.4375 C 209.027344 261.4375 210.828125 260.132812 211.691406 258.242188 L 235.25 258.242188 L 246.304688 246.308594 L 257.484375 246.308594 L 257.484375 261.671875 L 270.507812 261.671875 L 270.507812 265.851562 L 261.535156 275.539062 L 245.9375 275.539062 L 234.878906 263.605469 L 218.566406 263.605469 C 217.617188 262.0625 215.996094 261.046875 214.15625 261.046875 C 211.230469 261.046875 208.859375 263.605469 208.859375 266.765625 C 208.859375 269.921875 211.230469 272.484375 214.15625 272.484375 C 216.464844 272.484375 218.429688 270.882812 219.148438 268.65625 Z M 262.164062 240.078125 L 269.402344 232.265625 L 283.535156 232.265625 L 283.535156 256.621094 L 262.164062 256.621094 Z M 262.164062 240.078125 " fill-opacity="1" fill-rule="nonzero"/><path fill="#11ccf5" d="M 226.5 227.839844 C 229.421875 227.839844 231.796875 225.28125 231.796875 222.121094 C 231.796875 218.960938 229.425781 216.402344 226.5 216.402344 C 224.414062 216.402344 222.613281 217.707031 221.75 219.59375 L 180.089844 219.59375 C 179.226562 217.707031 177.429688 216.402344 175.34375 216.402344 C 172.421875 216.402344 170.046875 218.960938 170.046875 222.121094 C 170.046875 225.28125 172.417969 227.839844 175.34375 227.839844 C 177.429688 227.839844 179.226562 226.535156 180.089844 224.644531 L 221.75 224.644531 C 222.613281 226.535156 224.414062 227.839844 226.5 227.839844 Z M 226.5 227.839844 " fill-opacity="1" fill-rule="nonzero"/><path fill="#11ccf5" d="M 176.390625 154.488281 L 196.871094 154.488281 C 197.734375 156.378906 199.53125 157.683594 201.617188 157.683594 C 204.542969 157.683594 206.914062 155.121094 206.914062 151.964844 C 206.914062 148.804688 204.542969 146.246094 201.617188 146.246094 C 199.53125 146.246094 197.734375 147.546875 196.871094 149.4375 L 176.390625 149.4375 C 175.523438 147.546875 173.726562 146.246094 171.640625 146.246094 C 168.71875 146.246094 166.34375 148.804688 166.34375 151.964844 C 166.34375 155.121094 168.714844 157.683594 171.640625 157.683594 C 173.726562 157.683594 175.523438 156.378906 176.390625 154.488281 Z M 176.390625 154.488281 " fill-opacity="1" fill-rule="nonzero"/><path fill="#11ccf5" d="M 170.203125 86.136719 L 193.394531 86.136719 L 208.808594 64.699219 L 218.25 64.699219 C 219.113281 66.589844 220.914062 67.894531 223 67.894531 C 225.921875 67.894531 228.296875 65.332031 228.296875 62.175781 C 228.296875 59.015625 225.925781 56.457031 223 56.457031 C 220.914062 56.457031 219.113281 57.761719 218.25 59.648438 L 206.515625 59.648438 L 191.105469 81.085938 L 171.117188 81.085938 C 170.488281 78.683594 168.449219 76.917969 166.019531 76.917969 C 163.097656 76.917969 160.722656 79.476562 160.722656 82.636719 C 160.722656 85.792969 163.09375 88.351562 166.019531 88.351562 C 167.722656 88.351562 169.234375 87.484375 170.203125 86.136719 Z M 170.203125 86.136719 " fill-opacity="1" fill-rule="nonzero"/><path fill="#11ccf5" d="M 300.0625 132.660156 L 319.210938 132.660156 L 319.210938 209.074219 L 300.0625 209.074219 Z M 300.0625 132.660156 " fill-opacity="1" fill-rule="nonzero"/><g clip-path="url(#feb809c3ea)"><path fill="#11ccf5" d="M 334.785156 132.425781 L 334.785156 129.898438 L 340.050781 129.898438 L 340.050781 124.847656 L 334.785156 124.847656 L 334.785156 122.324219 L 329.835938 122.324219 L 329.835938 120.472656 L 311.976562 120.472656 L 311.976562 79.851562 L 277.277344 41.261719 L 265.101562 40.050781 L 258.054688 31.65625 L 190.359375 31.65625 L 177.128906 48.632812 L 171.632812 48.542969 C 170.894531 46.339844 168.949219 44.761719 166.652344 44.761719 C 163.730469 44.761719 161.355469 47.324219 161.355469 50.480469 C 161.355469 53.640625 163.726562 56.199219 166.652344 56.199219 C 168.519531 56.199219 170.15625 55.160156 171.097656 53.585938 L 179.273438 53.726562 L 192.539062 36.710938 L 255.976562 36.710938 L 262.855469 44.902344 L 275.121094 46.125 L 307.292969 81.902344 L 307.292969 120.476562 L 300.054688 120.476562 L 300.4375 86.894531 L 271.609375 54.984375 L 259.820312 54.984375 L 251.339844 43.148438 L 200.269531 43.148438 L 183.144531 64.8125 L 171.136719 64.8125 C 170.546875 62.347656 168.484375 60.53125 166.019531 60.53125 C 163.09375 60.53125 160.71875 63.089844 160.71875 66.25 C 160.71875 69.40625 163.089844 71.964844 166.019531 71.964844 C 167.671875 71.964844 169.148438 71.148438 170.121094 69.867188 L 185.304688 69.867188 L 202.425781 48.203125 L 249.042969 48.203125 L 257.523438 60.039062 L 269.636719 60.039062 L 295.734375 88.925781 L 295.378906 120.476562 L 289.4375 120.476562 L 289.4375 122.328125 L 284.492188 122.328125 L 284.492188 124.855469 L 249.425781 124.855469 L 229.53125 103.382812 L 196.539062 103.382812 L 173.617188 128.125 C 173.003906 127.859375 172.339844 127.710938 171.640625 127.710938 C 168.71875 127.710938 166.34375 130.269531 166.34375 133.429688 C 166.34375 136.585938 168.714844 139.144531 171.640625 139.144531 C 174.570312 139.144531 176.9375 136.585938 176.9375 133.429688 C 176.9375 132.894531 176.867188 132.382812 176.738281 131.894531 L 198.476562 108.4375 L 227.59375 108.4375 L 247.488281 129.910156 L 284.488281 129.910156 L 284.488281 132.433594 L 289.433594 132.433594 L 289.433594 139.550781 L 284.488281 139.550781 L 284.488281 142.078125 L 243.183594 142.078125 L 232.125 130.144531 L 208.566406 130.144531 C 207.703125 128.253906 205.90625 126.949219 203.820312 126.949219 C 200.894531 126.949219 198.523438 129.511719 198.523438 132.667969 C 198.523438 135.828125 200.894531 138.386719 203.820312 138.386719 C 205.90625 138.386719 207.703125 137.082031 208.566406 135.195312 L 230.183594 135.195312 L 241.242188 147.128906 L 284.484375 147.128906 L 284.484375 149.652344 L 289.429688 149.652344 L 289.429688 156.769531 L 284.484375 156.769531 L 284.484375 159.296875 L 236.941406 159.296875 L 225.882812 147.363281 L 219.996094 147.363281 C 219.128906 145.472656 217.332031 144.167969 215.246094 144.167969 C 212.324219 144.167969 209.949219 146.730469 209.949219 149.886719 C 209.949219 153.046875 212.320312 155.605469 215.246094 155.605469 C 217.332031 155.605469 219.128906 154.300781 219.996094 152.414062 L 223.945312 152.414062 L 235 164.347656 L 284.484375 164.347656 L 284.484375 166.871094 L 289.429688 166.871094 L 289.429688 173.988281 L 284.484375 173.988281 L 284.484375 175.71875 L 228.828125 175.71875 L 228.828125 168.671875 L 225.28125 168.671875 L 225.28125 163.085938 L 220.601562 163.085938 L 220.601562 168.671875 L 217.335938 168.671875 L 217.335938 163.085938 L 212.65625 163.085938 L 212.65625 168.671875 L 210.207031 168.671875 L 210.207031 171.34375 L 205.226562 171.34375 L 205.226562 176.394531 L 210.207031 176.394531 L 210.207031 179.921875 L 205.226562 179.921875 L 205.226562 184.972656 L 210.207031 184.972656 L 210.207031 187.820312 L 212.65625 187.820312 L 212.65625 193.15625 L 217.335938 193.15625 L 217.335938 187.820312 L 220.601562 187.820312 L 220.601562 193.15625 L 225.28125 193.15625 L 225.28125 187.820312 L 228.828125 187.820312 L 228.828125 180.769531 L 284.484375 180.769531 L 284.484375 184.089844 L 289.429688 184.089844 L 289.429688 191.207031 L 284.484375 191.207031 L 284.484375 194.003906 L 252.472656 194.003906 L 241.417969 205.9375 L 237.46875 205.9375 C 236.601562 204.046875 234.804688 202.742188 232.71875 202.742188 C 229.796875 202.742188 227.421875 205.304688 227.421875 208.460938 C 227.421875 211.621094 229.792969 214.179688 232.71875 214.179688 C 234.804688 214.179688 236.601562 212.878906 237.46875 210.988281 L 243.355469 210.988281 L 254.414062 199.054688 L 284.488281 199.054688 L 284.488281 201.308594 L 289.433594 201.308594 L 289.433594 208.425781 L 284.488281 208.425781 L 284.488281 210.953125 L 260.1875 210.953125 L 237.054688 235.972656 L 221.882812 235.972656 C 221.019531 234.082031 219.222656 232.78125 217.136719 232.78125 C 214.214844 232.78125 211.839844 235.339844 211.839844 238.5 C 211.839844 241.65625 214.210938 244.21875 217.136719 244.21875 C 219.222656 244.21875 221.019531 242.914062 221.882812 241.023438 L 238.996094 241.023438 L 262.125 216.003906 L 284.484375 216.003906 L 284.484375 218.527344 L 289.429688 218.527344 L 289.429688 221.261719 L 295.328125 221.261719 L 295.328125 260.542969 L 274.707031 284.589844 L 263.871094 284.589844 L 259.851562 289.378906 L 240.363281 289.378906 L 228.355469 276.421875 L 225.484375 276.421875 C 224.65625 274.433594 222.808594 273.042969 220.65625 273.042969 C 217.730469 273.042969 215.359375 275.605469 215.359375 278.761719 C 215.359375 281.921875 217.730469 284.480469 220.65625 284.480469 C 222.671875 284.480469 224.425781 283.261719 225.320312 281.472656 L 226.414062 281.472656 L 238.421875 294.429688 L 261.921875 294.429688 L 265.941406 289.640625 L 276.75 289.640625 L 300 262.523438 L 300 221.265625 L 307.285156 221.265625 L 307.285156 265.550781 L 263.039062 316.894531 L 256.863281 316.894531 L 256.863281 302.019531 L 253.898438 302.019531 L 253.898438 298.476562 L 249.21875 298.476562 L 249.21875 302.019531 L 244.183594 302.019531 L 244.183594 298.476562 L 239.5 298.476562 L 239.5 302.019531 L 234.46875 302.019531 L 234.46875 298.476562 L 229.785156 298.476562 L 229.785156 302.019531 L 224.75 302.019531 L 224.75 298.476562 L 220.070312 298.476562 L 220.070312 302.019531 L 215.035156 302.019531 L 215.035156 298.476562 L 210.355469 298.476562 L 210.355469 302.019531 L 205.320312 302.019531 L 205.320312 298.476562 L 200.640625 298.476562 L 200.640625 302.019531 L 198.171875 302.019531 L 198.171875 316.949219 L 190.523438 316.949219 L 179.582031 294.164062 C 180.230469 293.214844 180.617188 292.046875 180.617188 290.777344 C 180.617188 287.621094 178.246094 285.058594 175.320312 285.058594 C 172.390625 285.058594 170.023438 287.621094 170.023438 290.777344 C 170.023438 293.9375 172.390625 296.496094 175.320312 296.496094 C 175.355469 296.496094 175.390625 296.492188 175.425781 296.492188 L 187.675781 322 L 198.167969 322 L 198.167969 336.816406 L 200.636719 336.816406 L 200.636719 340.359375 L 205.316406 340.359375 L 205.316406 336.816406 L 210.351562 336.816406 L 210.351562 340.359375 L 215.03125 340.359375 L 215.03125 336.816406 L 220.066406 336.816406 L 220.066406 340.359375 L 224.75 340.359375 L 224.75 336.816406 L 229.78125 336.816406 L 229.78125 340.359375 L 234.464844 340.359375 L 234.464844 336.816406 L 239.5 336.816406 L 239.5 340.359375 L 244.179688 340.359375 L 244.179688 336.816406 L 249.214844 336.816406 L 249.214844 340.359375 L 253.894531 340.359375 L 253.894531 336.816406 L 256.859375 336.816406 L 256.859375 331.414062 L 272.640625 331.414062 L 324.324219 272.222656 L 324.324219 221.261719 L 329.820312 221.261719 L 329.820312 218.527344 L 334.769531 218.527344 L 334.769531 216.003906 L 340.035156 216.003906 L 340.035156 210.953125 L 334.769531 210.953125 L 334.769531 208.425781 L 329.820312 208.425781 L 329.820312 201.308594 L 334.769531 201.308594 L 334.769531 198.785156 L 340.035156 198.785156 L 340.035156 193.734375 L 334.769531 193.734375 L 334.769531 191.207031 L 329.820312 191.207031 L 329.820312 184.089844 L 334.769531 184.089844 L 334.769531 181.566406 L 340.035156 181.566406 L 340.035156 176.515625 L 334.769531 176.515625 L 334.769531 173.988281 L 329.820312 173.988281 L 329.820312 166.871094 L 334.769531 166.871094 L 334.769531 164.347656 L 340.035156 164.347656 L 340.035156 159.296875 L 334.769531 159.296875 L 334.769531 156.769531 L 329.820312 156.769531 L 329.820312 149.652344 L 334.769531 149.652344 L 334.769531 147.128906 L 340.035156 147.128906 L 340.035156 142.078125 L 334.769531 142.078125 L 334.769531 139.550781 L 329.820312 139.550781 L 329.820312 132.433594 L 334.769531 132.433594 Z M 224.152344 182.765625 L 214.894531 182.765625 L 214.894531 173.71875 L 224.152344 173.71875 Z M 231.230469 317.101562 C 232.089844 318.789062 233.75 319.929688 235.660156 319.929688 C 238.453125 319.929688 240.71875 317.488281 240.71875 314.472656 C 240.71875 311.457031 238.453125 309.011719 235.660156 309.011719 C 233.671875 309.011719 231.957031 310.253906 231.132812 312.050781 L 211.492188 312.050781 L 207.382812 316.949219 L 202.875 316.949219 L 202.875 307.070312 L 252.199219 307.070312 L 252.199219 316.894531 L 248.527344 316.894531 L 243.140625 323.3125 L 222.773438 323.3125 C 222.132812 321.089844 220.214844 319.476562 217.945312 319.476562 C 215.148438 319.476562 212.886719 321.917969 212.886719 324.933594 C 212.886719 327.949219 215.152344 330.394531 217.945312 330.394531 C 219.53125 330.394531 220.949219 329.601562 221.878906 328.363281 L 245.21875 328.363281 L 250.605469 321.945312 L 252.199219 321.945312 L 252.199219 331.765625 L 202.875 331.765625 L 202.875 322 L 209.457031 322 L 213.5625 317.105469 L 231.226562 317.105469 Z M 319.664062 270.214844 L 270.640625 326.359375 L 256.878906 326.359375 L 256.878906 321.9375 L 265.089844 321.9375 L 311.980469 267.53125 L 311.980469 221.261719 L 319.667969 221.261719 L 319.667969 270.210938 Z M 325.160156 216.210938 L 294.117188 216.210938 L 294.117188 125.523438 L 325.160156 125.523438 Z M 325.160156 216.210938 " fill-opacity="1" fill-rule="nonzero"/></g><path fill="#11ccf5" d="M 272.847656 236.449219 C 268.375 236.449219 264.738281 240.375 264.738281 245.203125 C 264.738281 250.035156 268.375 253.960938 272.847656 253.960938 C 277.320312 253.960938 280.960938 250.035156 280.960938 245.203125 C 280.960938 240.375 277.320312 236.449219 272.847656 236.449219 Z M 272.847656 248.90625 C 270.957031 248.90625 269.417969 247.246094 269.417969 245.203125 C 269.417969 243.164062 270.957031 241.5 272.847656 241.5 C 274.742188 241.5 276.277344 243.164062 276.277344 245.203125 C 276.277344 247.246094 274.742188 248.90625 272.847656 248.90625 Z M 272.847656 248.90625 " fill-opacity="1" fill-rule="nonzero"/><path fill="#11ccf5" d="M 260.039062 64.03125 L 240.566406 64.03125 L 229.507812 75.964844 L 219.148438 75.964844 C 218.425781 73.734375 216.464844 72.132812 214.15625 72.132812 C 211.230469 72.132812 208.859375 74.695312 208.859375 77.851562 C 208.859375 81.011719 211.230469 83.570312 214.15625 83.570312 C 215.996094 83.570312 217.617188 82.554688 218.566406 81.015625 L 231.449219 81.015625 L 242.503906 69.082031 L 258.105469 69.082031 L 267.078125 78.769531 L 267.078125 82.949219 L 254.054688 82.949219 L 254.054688 98.308594 L 242.875 98.308594 L 231.816406 86.375 L 211.691406 86.375 C 210.828125 84.484375 209.027344 83.183594 206.945312 83.183594 C 204.019531 83.183594 201.644531 85.742188 201.644531 88.902344 C 201.644531 92.058594 204.015625 94.621094 206.945312 94.621094 C 209.027344 94.621094 210.828125 93.316406 211.691406 91.425781 L 229.878906 91.425781 L 240.933594 103.359375 L 254.054688 103.359375 L 254.054688 106.632812 L 264.03125 117.402344 L 284.785156 117.402344 L 284.785156 90.953125 L 277.367188 82.949219 L 271.757812 82.949219 L 271.757812 76.675781 L 260.042969 64.03125 Z M 280.105469 93.050781 L 280.105469 112.355469 L 265.972656 112.355469 L 258.734375 104.542969 L 258.734375 88.003906 L 275.425781 88.003906 Z M 280.105469 93.050781 " fill-opacity="1" fill-rule="nonzero"/><path fill="#11ccf5" d="M 269.417969 108.171875 C 273.890625 108.171875 277.527344 104.246094 277.527344 99.421875 C 277.527344 94.59375 273.890625 90.664062 269.417969 90.664062 C 264.945312 90.664062 261.304688 94.589844 261.304688 99.421875 C 261.304688 104.25 264.945312 108.171875 269.417969 108.171875 Z M 269.417969 95.714844 C 271.308594 95.714844 272.847656 97.375 272.847656 99.417969 C 272.847656 101.457031 271.308594 103.121094 269.417969 103.121094 C 267.523438 103.121094 265.988281 101.457031 265.988281 99.417969 C 265.988281 97.375 267.523438 95.714844 269.417969 95.714844 Z M 269.417969 95.714844 " fill-opacity="1" fill-rule="nonzero"/><path fill="#fffefa" d="M 109.1875 172.316406 C 109.1875 173.851562 108.027344 175.101562 106.605469 175.101562 C 105.179688 175.101562 104.019531 173.851562 104.019531 172.316406 C 104.019531 170.777344 105.175781 169.523438 106.605469 169.523438 C 108.03125 169.523438 109.1875 170.773438 109.1875 172.316406 Z M 109.1875 172.316406 " fill-opacity="1" fill-rule="nonzero"/><path fill="#fffefa" d="M 79.28125 129.199219 C 79.28125 130.742188 78.121094 131.992188 76.695312 131.992188 C 75.269531 131.992188 74.113281 130.742188 74.113281 129.199219 C 74.113281 127.660156 75.269531 126.410156 76.695312 126.410156 C 78.121094 126.410156 79.28125 127.660156 79.28125 129.199219 Z M 79.28125 129.199219 " fill-opacity="1" fill-rule="nonzero"/><path fill="#fffefa" d="M 101.550781 120.84375 C 101.550781 122.382812 100.390625 123.632812 98.96875 123.632812 C 97.542969 123.632812 96.382812 122.382812 96.382812 120.84375 C 96.382812 119.300781 97.539062 118.050781 98.96875 118.050781 C 100.394531 118.050781 101.550781 119.300781 101.550781 120.84375 Z M 101.550781 120.84375 " fill-opacity="1" fill-rule="nonzero"/><path fill="#fffefa" d="M 104.054688 196.472656 C 103.695312 197.960938 102.28125 198.859375 100.898438 198.46875 C 99.515625 198.078125 98.691406 196.558594 99.046875 195.0625 C 99.40625 193.574219 100.824219 192.679688 102.207031 193.066406 C 103.585938 193.457031 104.414062 194.980469 104.054688 196.472656 Z M 104.054688 196.472656 " fill-opacity="1" fill-rule="nonzero"/><path fill="#fffefa" d="M 65.011719 171.210938 C 64.652344 172.703125 63.238281 173.597656 61.855469 173.207031 C 60.472656 172.820312 59.648438 171.296875 60.003906 169.800781 C 60.367188 168.3125 61.78125 167.417969 63.160156 167.804688 C 64.542969 168.195312 65.371094 169.71875 65.011719 171.210938 Z M 65.011719 171.210938 " fill-opacity="1" fill-rule="nonzero"/><path fill="#fffefa" d="M 139.371094 184.511719 C 139.371094 184.882812 139.304688 185.238281 139.175781 185.582031 C 139.042969 185.921875 138.855469 186.222656 138.613281 186.484375 C 138.371094 186.746094 138.09375 186.949219 137.777344 187.089844 C 137.457031 187.234375 137.128906 187.304688 136.785156 187.304688 C 136.441406 187.304688 136.113281 187.234375 135.796875 187.089844 C 135.480469 186.949219 135.199219 186.746094 134.957031 186.484375 C 134.714844 186.222656 134.527344 185.921875 134.398438 185.582031 C 134.265625 185.238281 134.199219 184.882812 134.199219 184.511719 C 134.199219 184.140625 134.265625 183.785156 134.398438 183.445312 C 134.527344 183.101562 134.714844 182.800781 134.957031 182.539062 C 135.199219 182.277344 135.480469 182.074219 135.796875 181.933594 C 136.113281 181.792969 136.441406 181.722656 136.785156 181.722656 C 137.128906 181.722656 137.457031 181.792969 137.777344 181.933594 C 138.09375 182.074219 138.371094 182.277344 138.613281 182.539062 C 138.855469 182.800781 139.042969 183.101562 139.175781 183.445312 C 139.304688 183.785156 139.371094 184.140625 139.371094 184.511719 Z M 139.371094 184.511719 " fill-opacity="1" fill-rule="nonzero"/><path fill="#fffefa" d="M 101.890625 249.03125 C 101.890625 250.570312 100.734375 251.820312 99.308594 251.820312 C 97.886719 251.820312 96.722656 250.570312 96.722656 249.03125 C 96.722656 247.488281 97.882812 246.238281 99.308594 246.238281 C 100.738281 246.238281 101.890625 247.488281 101.890625 249.03125 Z M 101.890625 249.03125 " fill-opacity="1" fill-rule="nonzero"/><path fill="#fffefa" d="M 90.539062 230.617188 C 90.539062 232.160156 89.378906 233.410156 87.957031 233.410156 C 86.53125 233.410156 85.371094 232.160156 85.371094 230.617188 C 85.371094 229.078125 86.527344 227.828125 87.957031 227.828125 C 89.382812 227.828125 90.539062 229.078125 90.539062 230.617188 Z M 90.539062 230.617188 " fill-opacity="1" fill-rule="nonzero"/><path fill="#fffefa" d="M 71.308594 234.546875 C 71.308594 234.914062 71.242188 235.273438 71.113281 235.613281 C 70.980469 235.957031 70.792969 236.257812 70.550781 236.519531 C 70.308594 236.78125 70.03125 236.984375 69.710938 237.125 C 69.394531 237.265625 69.066406 237.335938 68.722656 237.335938 C 68.378906 237.335938 68.050781 237.265625 67.734375 237.125 C 67.417969 236.984375 67.136719 236.78125 66.894531 236.519531 C 66.652344 236.257812 66.464844 235.957031 66.335938 235.613281 C 66.203125 235.273438 66.136719 234.914062 66.136719 234.546875 C 66.136719 234.175781 66.203125 233.820312 66.335938 233.476562 C 66.464844 233.136719 66.652344 232.832031 66.894531 232.570312 C 67.136719 232.308594 67.417969 232.109375 67.734375 231.964844 C 68.050781 231.824219 68.378906 231.753906 68.722656 231.753906 C 69.066406 231.753906 69.394531 231.824219 69.710938 231.964844 C 70.03125 232.109375 70.308594 232.308594 70.550781 232.570312 C 70.792969 232.832031 70.980469 233.136719 71.113281 233.476562 C 71.242188 233.820312 71.308594 234.175781 71.308594 234.546875 Z M 71.308594 234.546875 " fill-opacity="1" fill-rule="nonzero"/><path fill="#fffefa" d="M 61.195312 190.433594 C 61.195312 191.972656 60.035156 193.222656 58.613281 193.222656 C 57.1875 193.222656 56.027344 191.972656 56.027344 190.433594 C 56.027344 188.890625 57.183594 187.640625 58.613281 187.640625 C 60.039062 187.640625 61.195312 188.890625 61.195312 190.433594 Z M 61.195312 190.433594 " fill-opacity="1" fill-rule="nonzero"/><path fill="#fffefa" d="M 71.308594 254.609375 C 71.308594 256.152344 70.152344 257.402344 68.722656 257.402344 C 67.296875 257.402344 66.136719 256.152344 66.136719 254.609375 C 66.136719 253.070312 67.296875 251.820312 68.722656 251.820312 C 70.152344 251.820312 71.308594 253.070312 71.308594 254.609375 Z M 71.308594 254.609375 " fill-opacity="1" fill-rule="nonzero"/><path fill="#fffefa" d="M 115.460938 273.539062 C 114.035156 273.539062 112.875 274.789062 112.875 276.332031 C 112.875 277.875 114.035156 279.125 115.460938 279.125 C 116.890625 279.125 118.046875 277.875 118.046875 276.332031 C 118.046875 274.789062 116.890625 273.539062 115.460938 273.539062 Z M 115.460938 273.539062 " fill-opacity="1" fill-rule="nonzero"/><path fill="#fffefa" d="M 137.3125 307.320312 C 137.3125 305.777344 136.152344 304.527344 134.726562 304.527344 C 133.296875 304.527344 132.140625 305.777344 132.140625 307.320312 C 132.140625 308.863281 133.296875 310.113281 134.726562 310.113281 C 136.152344 310.113281 137.3125 308.863281 137.3125 307.320312 Z M 137.3125 307.320312 " fill-opacity="1" fill-rule="nonzero"/><path fill="#fffefa" d="M 115.460938 302.738281 C 114.035156 302.738281 112.875 303.988281 112.875 305.527344 C 112.875 307.070312 114.035156 308.320312 115.460938 308.320312 C 116.890625 308.320312 118.046875 307.070312 118.046875 305.527344 C 118.046875 303.988281 116.890625 302.738281 115.460938 302.738281 Z M 115.460938 302.738281 " fill-opacity="1" fill-rule="nonzero"/><path fill="#fffefa" d="M 132.722656 264.292969 C 132.722656 264.664062 132.65625 265.019531 132.527344 265.363281 C 132.394531 265.703125 132.207031 266.003906 131.964844 266.265625 C 131.722656 266.527344 131.441406 266.730469 131.125 266.871094 C 130.808594 267.015625 130.480469 267.085938 130.136719 267.085938 C 129.792969 267.085938 129.464844 267.015625 129.148438 266.871094 C 128.832031 266.730469 128.550781 266.527344 128.308594 266.265625 C 128.066406 266.003906 127.878906 265.703125 127.75 265.363281 C 127.617188 265.019531 127.550781 264.664062 127.550781 264.292969 C 127.550781 263.921875 127.617188 263.566406 127.75 263.226562 C 127.878906 262.882812 128.066406 262.582031 128.308594 262.320312 C 128.550781 262.058594 128.832031 261.855469 129.148438 261.714844 C 129.464844 261.574219 129.792969 261.503906 130.136719 261.503906 C 130.480469 261.503906 130.808594 261.574219 131.125 261.714844 C 131.441406 261.855469 131.722656 262.058594 131.964844 262.320312 C 132.207031 262.582031 132.394531 262.882812 132.527344 263.226562 C 132.65625 263.566406 132.722656 263.921875 132.722656 264.292969 Z M 132.722656 264.292969 " fill-opacity="1" fill-rule="nonzero"/><path fill="#fffefa" d="M 164.050781 308.316406 C 164.050781 309.859375 165.207031 311.109375 166.636719 311.109375 C 168.0625 311.109375 169.222656 309.859375 169.222656 308.316406 C 169.222656 306.777344 168.0625 305.527344 166.636719 305.527344 C 165.207031 305.527344 164.050781 306.777344 164.050781 308.316406 Z M 164.050781 308.316406 " fill-opacity="1" fill-rule="nonzero"/><path fill="#fffefa" d="M 157.46875 284.492188 C 157.46875 286.03125 158.625 287.28125 160.054688 287.28125 C 161.480469 287.28125 162.636719 286.03125 162.636719 284.492188 C 162.636719 282.949219 161.480469 281.699219 160.054688 281.699219 C 158.625 281.699219 157.46875 282.949219 157.46875 284.492188 Z M 157.46875 284.492188 " fill-opacity="1" fill-rule="nonzero"/><path fill="#fffefa" d="M 142.617188 219.320312 C 141.1875 219.320312 140.03125 220.570312 140.03125 222.113281 C 140.03125 223.652344 141.1875 224.902344 142.617188 224.902344 C 144.042969 224.902344 145.199219 223.652344 145.199219 222.113281 C 145.199219 220.570312 144.042969 219.320312 142.617188 219.320312 Z M 142.617188 219.320312 " fill-opacity="1" fill-rule="nonzero"/><path fill="#fffefa" d="M 147.785156 246.566406 C 149.210938 246.566406 150.367188 245.316406 150.367188 243.773438 C 150.367188 242.234375 149.210938 240.984375 147.785156 240.984375 C 146.355469 240.984375 145.199219 242.234375 145.199219 243.773438 C 145.199219 245.316406 146.355469 246.566406 147.785156 246.566406 Z M 147.785156 246.566406 " fill-opacity="1" fill-rule="nonzero"/><path fill="#fffefa" d="M 119.550781 227.832031 C 119.550781 229.371094 120.710938 230.621094 122.136719 230.621094 C 123.5625 230.621094 124.722656 229.371094 124.722656 227.832031 C 124.722656 226.289062 123.5625 225.039062 122.136719 225.039062 C 120.710938 225.039062 119.550781 226.289062 119.550781 227.832031 Z M 119.550781 227.832031 " fill-opacity="1" fill-rule="nonzero"/><path fill="#fffefa" d="M 161.542969 190.300781 C 161.542969 191.839844 162.703125 193.089844 164.128906 193.089844 C 165.554688 193.089844 166.714844 191.839844 166.714844 190.300781 C 166.714844 188.757812 165.554688 187.507812 164.128906 187.507812 C 162.703125 187.507812 161.542969 188.757812 161.542969 190.300781 Z M 161.542969 190.300781 " fill-opacity="1" fill-rule="nonzero"/><path fill="#fffefa" d="M 130.992188 151.949219 C 130.992188 152.320312 130.925781 152.675781 130.792969 153.019531 C 130.664062 153.359375 130.476562 153.664062 130.234375 153.925781 C 129.992188 154.1875 129.710938 154.386719 129.394531 154.53125 C 129.078125 154.671875 128.75 154.742188 128.40625 154.742188 C 128.0625 154.742188 127.734375 154.671875 127.417969 154.53125 C 127.101562 154.386719 126.820312 154.1875 126.578125 153.925781 C 126.335938 153.664062 126.148438 153.359375 126.015625 153.019531 C 125.886719 152.675781 125.820312 152.320312 125.820312 151.949219 C 125.820312 151.582031 125.886719 151.222656 126.015625 150.882812 C 126.148438 150.539062 126.335938 150.238281 126.578125 149.976562 C 126.820312 149.714844 127.101562 149.511719 127.417969 149.371094 C 127.734375 149.230469 128.0625 149.160156 128.40625 149.160156 C 128.75 149.160156 129.078125 149.230469 129.394531 149.371094 C 129.710938 149.511719 129.992188 149.714844 130.234375 149.976562 C 130.476562 150.238281 130.664062 150.539062 130.792969 150.882812 C 130.925781 151.222656 130.992188 151.582031 130.992188 151.949219 Z M 130.992188 151.949219 " fill-opacity="1" fill-rule="nonzero"/><path fill="#fffefa" d="M 115.960938 83.917969 C 115.960938 85.460938 117.117188 86.710938 118.542969 86.710938 C 119.972656 86.710938 121.128906 85.460938 121.128906 83.917969 C 121.128906 82.378906 119.972656 81.128906 118.542969 81.128906 C 117.117188 81.128906 115.960938 82.378906 115.960938 83.917969 Z M 115.960938 83.917969 " fill-opacity="1" fill-rule="nonzero"/><path fill="#fffefa" d="M 146.195312 50.386719 C 146.195312 51.929688 147.351562 53.179688 148.78125 53.179688 C 150.207031 53.179688 151.367188 51.929688 151.367188 50.386719 C 151.367188 48.84375 150.207031 47.59375 148.78125 47.59375 C 147.351562 47.59375 146.195312 48.84375 146.195312 50.386719 Z M 146.195312 50.386719 " fill-opacity="1" fill-rule="nonzero"/><path fill="#fffefa" d="M 129.460938 98.070312 C 129.460938 99.613281 130.617188 100.863281 132.046875 100.863281 C 133.472656 100.863281 134.632812 99.613281 134.632812 98.070312 C 134.632812 96.53125 133.472656 95.28125 132.046875 95.28125 C 130.617188 95.28125 129.460938 96.53125 129.460938 98.070312 Z M 129.460938 98.070312 " fill-opacity="1" fill-rule="nonzero"/><path fill="#fffefa" d="M 148.78125 91.683594 C 148.78125 93.222656 149.9375 94.472656 151.367188 94.472656 C 152.792969 94.472656 153.953125 93.222656 153.953125 91.683594 C 153.953125 90.140625 152.792969 88.890625 151.367188 88.890625 C 149.9375 88.890625 148.78125 90.140625 148.78125 91.683594 Z M 148.78125 91.683594 " fill-opacity="1" fill-rule="nonzero"/><path fill="#fffefa" d="M 142.550781 126.410156 C 142.550781 126.78125 142.488281 127.136719 142.355469 127.480469 C 142.222656 127.820312 142.039062 128.125 141.792969 128.386719 C 141.550781 128.648438 141.273438 128.847656 140.957031 128.992188 C 140.640625 129.132812 140.308594 129.203125 139.964844 129.203125 C 139.625 129.203125 139.292969 129.132812 138.976562 128.992188 C 138.660156 128.847656 138.378906 128.648438 138.136719 128.386719 C 137.894531 128.125 137.710938 127.820312 137.578125 127.480469 C 137.445312 127.136719 137.382812 126.78125 137.382812 126.410156 C 137.382812 126.042969 137.445312 125.6875 137.578125 125.34375 C 137.710938 125 137.894531 124.699219 138.136719 124.4375 C 138.378906 124.175781 138.660156 123.976562 138.976562 123.832031 C 139.292969 123.691406 139.625 123.621094 139.964844 123.621094 C 140.308594 123.621094 140.640625 123.691406 140.957031 123.832031 C 141.273438 123.976562 141.550781 124.175781 141.792969 124.4375 C 142.039062 124.699219 142.222656 125 142.355469 125.34375 C 142.488281 125.6875 142.550781 126.042969 142.550781 126.410156 Z M 142.550781 126.410156 " fill-opacity="1" fill-rule="nonzero"/><path fill="#fffefa" d="M 157.246094 145.585938 C 157.246094 147.128906 158.402344 148.378906 159.832031 148.378906 C 161.257812 148.378906 162.417969 147.128906 162.417969 145.585938 C 162.417969 144.046875 161.257812 142.796875 159.832031 142.796875 C 158.402344 142.796875 157.246094 144.046875 157.246094 145.585938 Z M 157.246094 145.585938 " fill-opacity="1" fill-rule="nonzero"/><path fill="#fffefa" d="M 165.003906 124.902344 C 165.003906 125.273438 164.9375 125.628906 164.804688 125.96875 C 164.675781 126.3125 164.488281 126.613281 164.246094 126.875 C 164.003906 127.136719 163.722656 127.339844 163.40625 127.480469 C 163.089844 127.621094 162.757812 127.695312 162.417969 127.695312 C 162.074219 127.695312 161.742188 127.621094 161.425781 127.480469 C 161.109375 127.339844 160.832031 127.136719 160.589844 126.875 C 160.347656 126.613281 160.160156 126.3125 160.027344 125.96875 C 159.898438 125.628906 159.832031 125.273438 159.832031 124.902344 C 159.832031 124.53125 159.898438 124.175781 160.027344 123.835938 C 160.160156 123.492188 160.347656 123.191406 160.589844 122.929688 C 160.832031 122.667969 161.109375 122.464844 161.425781 122.324219 C 161.742188 122.183594 162.074219 122.109375 162.417969 122.109375 C 162.757812 122.109375 163.089844 122.183594 163.40625 122.324219 C 163.722656 122.464844 164.003906 122.667969 164.246094 122.929688 C 164.488281 123.191406 164.675781 123.492188 164.804688 123.835938 C 164.9375 124.175781 165.003906 124.53125 165.003906 124.902344 Z M 165.003906 124.902344 " fill-opacity="1" fill-rule="nonzero"/><path fill="#fffefa" d="M 88.996094 285.050781 C 88.996094 285.421875 88.929688 285.777344 88.800781 286.117188 C 88.667969 286.460938 88.480469 286.761719 88.238281 287.023438 C 87.996094 287.285156 87.71875 287.488281 87.398438 287.628906 C 87.082031 287.769531 86.753906 287.84375 86.410156 287.84375 C 86.066406 287.84375 85.738281 287.769531 85.421875 287.628906 C 85.105469 287.488281 84.824219 287.285156 84.582031 287.023438 C 84.339844 286.761719 84.152344 286.460938 84.023438 286.117188 C 83.890625 285.777344 83.824219 285.421875 83.824219 285.050781 C 83.824219 284.679688 83.890625 284.324219 84.023438 283.980469 C 84.152344 283.640625 84.339844 283.339844 84.582031 283.078125 C 84.824219 282.816406 85.105469 282.613281 85.421875 282.472656 C 85.738281 282.332031 86.066406 282.257812 86.410156 282.257812 C 86.753906 282.257812 87.082031 282.332031 87.398438 282.472656 C 87.71875 282.613281 87.996094 282.816406 88.238281 283.078125 C 88.480469 283.339844 88.667969 283.640625 88.800781 283.980469 C 88.929688 284.324219 88.996094 284.679688 88.996094 285.050781 Z M 88.996094 285.050781 " fill-opacity="1" fill-rule="nonzero"/><path fill="#fffefa" d="M 200.152344 209.8125 C 200.101562 212.609375 199.695312 215.328125 198.96875 217.910156 L 208.640625 217.910156 C 209.179688 215.285156 209.480469 212.578125 209.515625 209.8125 Z M 200.152344 209.8125 " fill-opacity="1" fill-rule="nonzero"/><path fill="#fffefa" d="M 183.800781 167.800781 C 186.421875 164.375 188.417969 160.457031 189.773438 156.167969 L 179.667969 156.167969 C 175.371094 165.550781 167.445312 169.070312 164.992188 169.953125 C 164.535156 170.054688 164.085938 170.160156 163.632812 170.277344 C 163.453125 170.324219 163.285156 170.382812 163.121094 170.449219 C 159.492188 171.085938 154.066406 170.46875 150.460938 166.992188 C 146.925781 163.582031 145.84375 158.035156 147.246094 150.507812 C 147.753906 147.773438 146.113281 145.109375 143.582031 144.5625 C 141.046875 144.011719 138.582031 145.78125 138.070312 148.515625 C 135.453125 162.578125 139.972656 170.417969 144.226562 174.523438 C 148.890625 179.023438 154.972656 180.796875 160.40625 180.796875 C 162.914062 180.796875 165.277344 180.417969 167.304688 179.757812 C 168.808594 179.457031 170.347656 179.289062 171.898438 179.257812 C 179.3125 179.117188 186.335938 182.09375 191.675781 187.652344 C 195.34375 191.472656 197.910156 196.207031 199.199219 201.390625 L 208.8125 201.390625 C 207.359375 193.421875 203.695312 186.136719 198.171875 180.378906 C 193.46875 175.480469 187.785156 172.082031 181.621094 170.386719 C 182.359375 169.585938 183.089844 168.71875 183.800781 167.792969 Z M 183.800781 167.800781 " fill-opacity="1" fill-rule="nonzero"/><path fill="#fffefa" d="M 186.117188 58.457031 L 193.824219 48.703125 C 193.097656 46.0625 192.171875 43.570312 191.042969 41.242188 L 184.320312 49.863281 C 185.195312 52.507812 185.796875 55.378906 186.113281 58.460938 Z M 186.117188 58.457031 " fill-opacity="1" fill-rule="nonzero"/><path fill="#fffefa" d="M 191.539062 147.753906 C 191.78125 145.613281 191.894531 143.40625 191.859375 141.148438 C 191.746094 134.507812 190.144531 128.253906 187.394531 122.765625 L 180.378906 130.339844 C 181.6875 133.734375 182.4375 137.441406 182.503906 141.328125 C 182.539062 143.644531 182.394531 145.78125 182.105469 147.75 L 191.542969 147.75 Z M 191.539062 147.753906 " fill-opacity="1" fill-rule="nonzero"/><g clip-path="url(#48d6976abe)"><path fill="#fffefa" d="M 205.976562 226.332031 L 195.199219 226.332031 C 191.996094 231.3125 187.394531 235.25 181.84375 237.414062 C 177.378906 233.550781 172.066406 231.035156 166 229.949219 C 165.054688 220.441406 161.089844 211.667969 154.636719 204.945312 C 147.351562 197.359375 137.765625 193.308594 127.640625 193.488281 C 125.574219 193.527344 123.269531 193.8125 120.890625 194.386719 C 123.476562 187.480469 125.0625 179.996094 124.960938 173.753906 C 124.828125 165.929688 122.714844 158.492188 118.828125 152.019531 C 122.0625 146.722656 123.929688 140.574219 124.214844 134.210938 C 134.441406 115.742188 142.582031 113.957031 149.164062 112.507812 C 150.808594 112.140625 152.519531 111.9375 154.238281 111.90625 C 154.738281 111.898438 155.214844 111.902344 155.65625 111.917969 L 155.742188 111.917969 C 156.246094 111.9375 156.75 111.972656 157.246094 112.023438 C 157.28125 112.023438 157.320312 112.027344 157.355469 112.03125 C 165.019531 112.804688 171.703125 116.875 176.253906 122.894531 L 182.902344 115.71875 C 180.421875 112.605469 177.507812 109.902344 174.238281 107.734375 C 178.535156 105.167969 182.449219 101.507812 185.773438 96.855469 C 187.757812 94.082031 189.460938 91.054688 190.875 87.820312 L 180.21875 87.820312 C 179.640625 88.808594 179.023438 89.765625 178.371094 90.675781 C 173.265625 97.808594 166.480469 101.8125 159.265625 101.957031 C 158.828125 101.964844 158.402344 101.957031 158.003906 101.941406 C 157.898438 101.933594 157.792969 101.929688 157.6875 101.929688 C 157.128906 101.882812 156.5625 101.84375 156.003906 101.824219 L 155.914062 101.824219 C 155.328125 101.800781 154.707031 101.792969 154.070312 101.808594 C 151.769531 101.855469 149.484375 102.125 147.285156 102.613281 C 139.449219 104.339844 131.128906 107.207031 122.0625 119.691406 C 121.925781 119.296875 121.777344 118.902344 121.625 118.515625 C 117.984375 109.324219 110.792969 102.148438 102.105469 98.890625 C 101.382812 96.511719 100.996094 94.023438 100.953125 91.472656 C 100.839844 84.6875 103.183594 78.253906 107.550781 73.367188 C 111.917969 68.476562 117.789062 65.71875 124.078125 65.597656 C 125.207031 65.574219 126.335938 65.636719 127.445312 65.789062 C 133.835938 66.644531 139.695312 70.371094 143.523438 76.007812 C 145.050781 78.257812 147.980469 78.746094 150.066406 77.097656 C 152.148438 75.449219 152.597656 72.289062 151.070312 70.039062 C 147.066406 64.136719 141.460938 59.738281 135.148438 57.398438 C 134.617188 50.441406 137.296875 45.066406 139.824219 41.640625 C 144.410156 35.417969 151.601562 31.3125 158.152344 31.183594 C 166.042969 31.023438 172.875 33.691406 177.890625 38.890625 C 178.78125 39.8125 179.601562 40.820312 180.355469 41.886719 L 186.492188 34.015625 C 185.820312 33.175781 185.113281 32.371094 184.371094 31.597656 C 177.628906 24.605469 168.25 20.871094 157.984375 21.070312 C 148.753906 21.25 138.75 26.851562 132.496094 35.339844 C 128.078125 41.335938 125.769531 48.316406 125.730469 55.507812 C 125.128906 55.484375 124.519531 55.472656 123.914062 55.484375 C 115.125 55.65625 106.921875 59.515625 100.816406 66.34375 C 94.710938 73.175781 91.4375 82.160156 91.597656 91.648438 C 91.625 93.4375 91.777344 95.207031 92.050781 96.949219 C 91.621094 96.9375 91.1875 96.9375 90.757812 96.945312 C 81.96875 97.113281 73.765625 100.972656 67.660156 107.804688 C 61.558594 114.636719 58.28125 123.625 58.441406 133.113281 C 58.53125 138.304688 59.628906 143.285156 61.703125 147.914062 C 61.765625 148.058594 61.832031 148.195312 61.898438 148.335938 C 61.550781 148.355469 61.195312 148.382812 60.839844 148.414062 C 42.726562 150.109375 34.878906 166.441406 35.136719 181.871094 C 35.28125 190.785156 38.601562 199.144531 44.480469 205.40625 C 47.070312 208.171875 50.039062 210.390625 53.25 212.011719 C 45.273438 219.007812 40.316406 229.792969 40.144531 241.808594 C 39.917969 257.035156 45.390625 268.808594 55.15625 274.109375 C 56.433594 274.804688 57.75 275.363281 59.097656 275.789062 C 59.121094 281.800781 60.855469 291.78125 70.652344 299.234375 C 76.023438 303.324219 81.210938 304.539062 85.472656 304.539062 C 87.320312 304.539062 88.992188 304.3125 90.4375 303.992188 C 91.371094 303.78125 92.242188 303.527344 93.050781 303.25 C 95.390625 312.5625 99.980469 320.71875 106.148438 326.171875 C 111.917969 331.265625 118.824219 333.886719 126.363281 333.886719 C 128.117188 333.886719 129.90625 333.746094 131.71875 333.464844 C 133.703125 333.152344 135.617188 332.617188 137.453125 331.902344 C 140.386719 341.894531 147.171875 347.433594 148.414062 348.378906 C 149.550781 349.320312 155.511719 353.90625 163.835938 353.90625 C 167.804688 353.90625 172.308594 352.863281 177.089844 349.882812 C 188.902344 342.515625 189.480469 331.941406 188.777344 326.289062 C 188.664062 325.371094 188.5 324.5 188.320312 323.679688 L 186.753906 323.679688 L 180.132812 309.894531 C 176.105469 315.472656 170.101562 319.683594 161.140625 319.859375 C 158.558594 319.910156 156.503906 322.214844 156.550781 325 C 156.59375 327.757812 158.679688 329.960938 161.226562 329.960938 L 161.3125 329.960938 C 167.875 329.832031 173.789062 328.015625 178.851562 324.632812 C 179.464844 326.652344 179.921875 329.335938 179.390625 332.050781 C 178.691406 335.628906 176.34375 338.683594 172.410156 341.136719 C 162.632812 347.238281 154.675781 340.832031 154.140625 340.386719 C 154 340.257812 153.976562 340.234375 153.816406 340.125 C 153.535156 339.917969 147.539062 335.382812 145.886719 326.824219 C 152.40625 321.222656 156.554688 312.847656 156.453125 303.933594 C 156.378906 297.59375 153.273438 289.09375 146.5 284.375 C 141.800781 281.105469 133.59375 278.4375 121.15625 284.308594 C 118.789062 285.425781 117.710938 288.402344 118.746094 290.960938 C 119.777344 293.519531 122.539062 294.683594 124.90625 293.566406 C 129.667969 291.316406 136.40625 289.371094 141.429688 292.871094 C 145.523438 295.722656 147.0625 301.128906 147.097656 304.066406 C 147.210938 313.460938 139.867188 321.980469 130.378906 323.46875 C 123.328125 324.574219 117.175781 322.855469 112.085938 318.359375 C 105.53125 312.570312 101.289062 302.523438 100.734375 291.480469 C 100.167969 280.222656 102.503906 269.910156 107.675781 260.835938 C 111.554688 254.039062 115.679688 250.484375 115.789062 250.390625 C 115.894531 250.300781 115.992188 250.203125 116.09375 250.109375 C 120.8125 251.453125 125.746094 251.058594 129.890625 248.800781 C 135.394531 245.800781 138.578125 239.980469 138.625 232.828125 C 138.644531 230.039062 136.566406 227.761719 133.980469 227.738281 L 133.945312 227.738281 C 131.378906 227.738281 129.28125 229.980469 129.261719 232.75 C 129.242188 236.128906 128.03125 238.492188 125.671875 239.78125 C 122.382812 241.570312 117.574219 240.84375 113.96875 238.015625 C 111.042969 235.71875 106.398438 230.085938 108.113281 218.128906 C 108.484375 215.542969 109.480469 213.34375 110.863281 211.507812 C 111.457031 210.90625 112.046875 210.25 112.625 209.542969 C 116.945312 205.449219 123.347656 203.679688 127.808594 203.59375 C 135.429688 203.445312 142.648438 206.507812 148.136719 212.226562 C 153.621094 217.941406 156.71875 225.613281 156.855469 233.84375 C 157.03125 244.167969 152.429688 253.851562 144.550781 259.746094 C 142.429688 261.335938 141.898438 264.480469 143.371094 266.773438 C 144.28125 268.191406 145.734375 268.949219 147.21875 268.949219 C 148.136719 268.949219 149.066406 268.65625 149.882812 268.050781 C 158.652344 261.488281 164.355469 251.386719 165.835938 240.207031 C 174.492188 242.230469 180.777344 248.335938 184.554688 258.386719 C 185.640625 261.285156 186.414062 264.21875 186.96875 267.015625 L 196.511719 267.015625 C 195.84375 263.082031 194.8125 258.824219 193.226562 254.597656 C 191.9375 251.15625 190.390625 248.054688 188.605469 245.289062 C 196.34375 241.246094 202.410156 234.5 205.96875 226.34375 Z M 91.386719 292.023438 C 91.40625 292.394531 91.429688 292.773438 91.457031 293.144531 C 88.359375 294.511719 82.488281 295.875 76.042969 290.976562 C 70.035156 286.410156 68.660156 280.453125 68.46875 276.621094 C 72.382812 276.105469 76.148438 274.511719 79.328125 271.882812 C 86.625 265.839844 89.539062 255.753906 87.332031 244.207031 C 86.804688 241.476562 84.332031 239.714844 81.800781 240.28125 C 79.269531 240.847656 77.640625 243.519531 78.167969 246.25 C 79.644531 253.96875 78.035156 260.222656 73.636719 263.867188 C 69.65625 267.160156 64.058594 267.636719 59.367188 265.089844 C 52.933594 261.597656 49.339844 253.167969 49.503906 241.964844 C 49.691406 229.234375 57.007812 218.394531 67.710938 214.984375 C 69.886719 214.292969 72.160156 213.917969 74.464844 213.871094 L 74.667969 213.871094 C 74.816406 213.867188 74.964844 213.863281 75.105469 213.867188 C 75.199219 213.871094 75.285156 213.871094 75.378906 213.871094 L 75.714844 213.871094 C 79.582031 213.902344 89.855469 213.976562 97.527344 223.417969 C 97.800781 223.75 98.101562 224.03125 98.429688 224.265625 C 98.710938 232.894531 101.769531 240.21875 107.242188 245.144531 C 101.695312 251.125 90.117188 266.761719 91.390625 292.027344 Z M 106.09375 202.253906 C 103.4375 204.84375 101.257812 208.074219 99.941406 212.019531 C 90.382812 203.882812 79.671875 203.796875 75.777344 203.769531 L 75.335938 203.769531 C 75.335938 203.769531 75.3125 203.761719 75.304688 203.761719 C 75.0625 203.761719 74.820312 203.761719 74.582031 203.765625 C 74.484375 203.765625 74.394531 203.765625 74.285156 203.769531 C 71.40625 203.824219 68.5625 204.261719 65.816406 205.066406 C 54.214844 204.644531 44.703125 194.292969 44.492188 181.6875 C 44.328125 171.738281 48.722656 159.683594 61.648438 158.472656 C 64.601562 158.199219 67.25 158.441406 69.570312 159.066406 C 70.390625 159.730469 71.363281 160.058594 72.332031 160.0625 C 76.882812 162.152344 79.6875 165.894531 80.371094 169.808594 C 81.261719 174.929688 78.46875 179.03125 72.90625 180.789062 C 70.425781 181.570312 69.003906 184.375 69.730469 187.054688 C 70.457031 189.730469 73.054688 191.269531 75.535156 190.484375 C 87.292969 186.773438 91.054688 176.492188 89.574219 167.945312 C 88.273438 160.464844 82.90625 153.300781 74.351562 150.0625 C 74.300781 150.003906 74.25 149.949219 74.203125 149.890625 C 74.1875 149.871094 74.167969 149.847656 74.148438 149.832031 C 74 149.660156 73.851562 149.480469 73.699219 149.296875 C 72.269531 147.550781 71.066406 145.609375 70.132812 143.515625 C 68.648438 140.207031 67.859375 136.644531 67.800781 132.929688 C 67.6875 126.136719 70.03125 119.699219 74.402344 114.8125 C 78.769531 109.925781 84.636719 107.167969 90.929688 107.039062 C 93.105469 107 95.265625 107.273438 97.351562 107.867188 C 104.324219 109.84375 110.179688 115.304688 113.027344 122.480469 C 114.222656 125.488281 114.851562 128.695312 114.90625 132.011719 C 114.976562 136.144531 114.109375 140.203125 112.417969 143.84375 C 108.207031 139.695312 103.207031 136.613281 97.6875 134.8125 C 95.210938 134.003906 92.601562 135.511719 91.855469 138.183594 C 91.105469 140.855469 92.507812 143.671875 94.980469 144.480469 C 100.6875 146.34375 105.664062 150.011719 109.378906 155.097656 C 109.386719 155.101562 109.390625 155.113281 109.394531 155.117188 C 113.34375 160.523438 115.492188 167.03125 115.605469 173.933594 C 115.75 182.585938 111.269531 195.523438 106.09375 202.25 Z M 106.09375 202.253906 " fill-opacity="1" fill-rule="nonzero"/></g><path fill="#fffefa" d="M 185.804688 71.542969 C 185.398438 74.257812 184.785156 76.886719 183.96875 79.402344 L 190.339844 79.402344 L 195.101562 72.777344 C 195.578125 69.460938 195.792969 66.054688 195.738281 62.601562 C 195.71875 61.53125 195.671875 60.472656 195.601562 59.429688 L 186.023438 71.542969 Z M 185.804688 71.542969 " fill-opacity="1" fill-rule="nonzero"/><path fill="#fffefa" d="M 194.726562 275.425781 L 188.105469 275.425781 C 188.4375 279.890625 188.273438 283.121094 188.234375 283.78125 C 188.015625 287.324219 187.257812 294.265625 184.707031 301.128906 L 190.042969 312.246094 C 195.375 302.882812 197.09375 292.125 197.570312 284.457031 C 197.617188 283.679688 197.699219 281.925781 197.660156 279.5 Z M 194.726562 275.425781 " fill-opacity="1" fill-rule="nonzero"/></svg>